<svg preserveAspectRatio="xMidYMid meet" xmlns="http://www.w3.org/2000/svg" width="18" height="18" fill="none" viewBox="0 0 48 48"><g><g clip-path="url(#a)"><path fill="#1877F2" d="M24 0c13.255 0 24 10.745 24 24 0 11.979-8.776 21.908-20.25 23.708v-16.77h5.592L34.406 24H27.75v-4.5c0-1.81.845-3.576 3.505-3.738.131-.008.267-.012.406-.012h3.026V9.844s-.322-.055-.85-.127a38.656 38.656 0 0 0-3.293-.311c-.405-.02-.819-.031-1.229-.031-5.482 0-9.065 3.322-9.065 9.337V24h-6.094v6.938h6.094v16.77C8.776 45.908 0 35.978 0 24 0 10.745 10.745 0 24 0Z" clip-rule="evenodd" fill-rule="evenodd"></path></g><defs><clipPath id="a"><path fill="#fff" d="M0 0h48v48H0z"></path></clipPath></defs></g></svg>
